<?xml version="1.0" encoding="UTF-8" standalone="no"?>
<!-- Created with Inkscape (http://www.inkscape.org/) -->

<svg
   sodipodi:docname="panel.svg"
   id="svg5"
   version="1.1"
   viewBox="0 0 31.759129 10.74059"
   height="10.74059mm"
   width="10.62822mm"
   inkscape:version="1.2.1 (9c6d41e410, 2022-07-14, custom)"
   xml:space="preserve"
   xmlns:inkscape="http://www.inkscape.org/namespaces/inkscape"
   xmlns:sodipodi="http://sodipodi.sourceforge.net/DTD/sodipodi-0.dtd"
   xmlns="http://www.w3.org/2000/svg"
   xmlns:svg="http://www.w3.org/2000/svg"><sodipodi:namedview
     id="namedview7"
     pagecolor="#ffffff"
     bordercolor="#000000"
     borderopacity="0.25"
     inkscape:showpageshadow="2"
     inkscape:pageopacity="0.0"
     inkscape:pagecheckerboard="0"
     inkscape:deskcolor="#d1d1d1"
     inkscape:document-units="mm"
     showgrid="false"
     inkscape:zoom="2.2395137"
     inkscape:cx="84.170059"
     inkscape:cy="156.73046"
     inkscape:window-width="1920"
     inkscape:window-height="1005"
     inkscape:window-x="0"
     inkscape:window-y="75"
     inkscape:window-maximized="1"
     inkscape:current-layer="svg5"
     showguides="false"><sodipodi:guide
       position="-6.1655245,-17.418657"
       orientation="22.677165,0"
       id="guide11393"
       inkscape:locked="false" /><sodipodi:guide
       position="-6.1655245,-23.418657"
       orientation="0,22.677165"
       id="guide11395"
       inkscape:locked="false" /><sodipodi:guide
       position="-0.16552457,-23.418657"
       orientation="-22.677165,0"
       id="guide11397"
       inkscape:locked="false" /><sodipodi:guide
       position="-0.16552457,-17.418657"
       orientation="0,-22.677165"
       id="guide11399"
       inkscape:locked="false" /><sodipodi:guide
       position="-7.2187895,-16.813386"
       orientation="26.910388,0"
       id="guide11401"
       inkscape:locked="false" /><sodipodi:guide
       position="-7.2187895,-23.933426"
       orientation="0,30.655686"
       id="guide11403"
       inkscape:locked="false" /><sodipodi:guide
       position="0.89219442,-23.933426"
       orientation="-26.910388,0"
       id="guide11405"
       inkscape:locked="false" /><sodipodi:guide
       position="0.89219442,-16.813386"
       orientation="0,-30.655686"
       id="guide11407"
       inkscape:locked="false" /><sodipodi:guide
       position="-6.1655245,-26.418657"
       orientation="22.677165,0"
       id="guide11409"
       inkscape:locked="false" /><sodipodi:guide
       position="-6.1655245,-32.418656"
       orientation="0,22.677165"
       id="guide11411"
       inkscape:locked="false" /><sodipodi:guide
       position="-0.16552457,-32.418656"
       orientation="-22.677165,0"
       id="guide11413"
       inkscape:locked="false" /><sodipodi:guide
       position="-1.2430366,-26.403728"
       orientation="0,-22.677165"
       id="guide11415"
       inkscape:locked="false" /><sodipodi:guide
       position="-7.2187895,-25.813386"
       orientation="26.910388,0"
       id="guide11417"
       inkscape:locked="false" /><sodipodi:guide
       position="-7.2187895,-32.933425"
       orientation="0,30.655686"
       id="guide11419"
       inkscape:locked="false" /><sodipodi:guide
       position="0.89219442,-32.933425"
       orientation="-26.910388,0"
       id="guide11421"
       inkscape:locked="false" /><sodipodi:guide
       position="0.89219442,-25.813386"
       orientation="0,-30.655686"
       id="guide11423"
       inkscape:locked="false" /><sodipodi:guide
       position="-6.1655245,-36.418656"
       orientation="22.677165,0"
       id="guide11425"
       inkscape:locked="false" /><sodipodi:guide
       position="-6.1655245,-42.418656"
       orientation="0,22.677165"
       id="guide11427"
       inkscape:locked="false" /><sodipodi:guide
       position="-0.16552457,-42.418656"
       orientation="-22.677165,0"
       id="guide11429"
       inkscape:locked="false" /><sodipodi:guide
       position="-0.16552457,-36.418656"
       orientation="0,-22.677165"
       id="guide11431"
       inkscape:locked="false" /><sodipodi:guide
       position="-7.2187895,-35.813385"
       orientation="26.910388,0"
       id="guide11433"
       inkscape:locked="false" /><sodipodi:guide
       position="-7.2187895,-42.933425"
       orientation="0,30.655686"
       id="guide11435"
       inkscape:locked="false" /><sodipodi:guide
       position="0.89219442,-42.933425"
       orientation="-26.910388,0"
       id="guide11437"
       inkscape:locked="false" /><sodipodi:guide
       position="0.89219442,-35.813385"
       orientation="0,-30.655686"
       id="guide11439"
       inkscape:locked="false" /><sodipodi:guide
       position="-6.1655245,-46.418656"
       orientation="22.677165,0"
       id="guide11441"
       inkscape:locked="false" /><sodipodi:guide
       position="-6.1655245,-52.418656"
       orientation="0,22.677165"
       id="guide11443"
       inkscape:locked="false" /><sodipodi:guide
       position="-0.16552457,-52.418656"
       orientation="-22.677165,0"
       id="guide11445"
       inkscape:locked="false" /><sodipodi:guide
       position="-0.16552457,-46.418656"
       orientation="0,-22.677165"
       id="guide11447"
       inkscape:locked="false" /><sodipodi:guide
       position="-7.2187895,-45.813385"
       orientation="26.910388,0"
       id="guide11449"
       inkscape:locked="false" /><sodipodi:guide
       position="-7.2187895,-52.933425"
       orientation="0,30.655686"
       id="guide11451"
       inkscape:locked="false" /><sodipodi:guide
       position="0.89219442,-52.933425"
       orientation="-26.910388,0"
       id="guide11453"
       inkscape:locked="false" /><sodipodi:guide
       position="0.89219442,-45.813385"
       orientation="0,-30.655686"
       id="guide11455"
       inkscape:locked="false" /><sodipodi:guide
       position="-6.1655245,-56.418655"
       orientation="22.677165,0"
       id="guide11457"
       inkscape:locked="false" /><sodipodi:guide
       position="-6.1655245,-62.418655"
       orientation="0,22.677165"
       id="guide11459"
       inkscape:locked="false" /><sodipodi:guide
       position="-0.16552457,-62.418655"
       orientation="-22.677165,0"
       id="guide11461"
       inkscape:locked="false" /><sodipodi:guide
       position="-0.16552457,-56.418655"
       orientation="0,-22.677165"
       id="guide11463"
       inkscape:locked="false" /><sodipodi:guide
       position="-7.2187895,-55.813384"
       orientation="26.910388,0"
       id="guide11465"
       inkscape:locked="false" /><sodipodi:guide
       position="-7.2187895,-62.933424"
       orientation="0,30.655686"
       id="guide11467"
       inkscape:locked="false" /><sodipodi:guide
       position="0.89219442,-62.933424"
       orientation="-26.910388,0"
       id="guide11469"
       inkscape:locked="false" /><sodipodi:guide
       position="0.89219442,-55.813384"
       orientation="0,-30.655686"
       id="guide11471"
       inkscape:locked="false" /><sodipodi:guide
       position="-6.1655245,-66.418655"
       orientation="22.677165,0"
       id="guide11473"
       inkscape:locked="false" /><sodipodi:guide
       position="-6.1655245,-72.418655"
       orientation="0,22.677165"
       id="guide11475"
       inkscape:locked="false" /><sodipodi:guide
       position="-0.16552457,-72.418655"
       orientation="-22.677165,0"
       id="guide11477"
       inkscape:locked="false" /><sodipodi:guide
       position="-0.16552457,-66.418655"
       orientation="0,-22.677165"
       id="guide11479"
       inkscape:locked="false" /><sodipodi:guide
       position="-7.2187895,-65.813384"
       orientation="26.910388,0"
       id="guide11481"
       inkscape:locked="false" /><sodipodi:guide
       position="-7.2187895,-72.933424"
       orientation="0,30.655686"
       id="guide11483"
       inkscape:locked="false" /><sodipodi:guide
       position="0.89219442,-72.933424"
       orientation="-26.910388,0"
       id="guide11485"
       inkscape:locked="false" /><sodipodi:guide
       position="0.89219442,-65.813384"
       orientation="0,-30.655686"
       id="guide11487"
       inkscape:locked="false" /><sodipodi:guide
       position="-6.1655245,-76.418655"
       orientation="22.677165,0"
       id="guide11489"
       inkscape:locked="false" /><sodipodi:guide
       position="-6.1655245,-82.418654"
       orientation="0,22.677165"
       id="guide11491"
       inkscape:locked="false" /><sodipodi:guide
       position="-0.16552457,-82.418654"
       orientation="-22.677165,0"
       id="guide11493"
       inkscape:locked="false" /><sodipodi:guide
       position="-0.16552457,-76.418655"
       orientation="0,-22.677165"
       id="guide11495"
       inkscape:locked="false" /><sodipodi:guide
       position="-7.2187895,-75.813384"
       orientation="26.910388,0"
       id="guide11497"
       inkscape:locked="false" /><sodipodi:guide
       position="-7.2187895,-82.933423"
       orientation="0,30.655686"
       id="guide11499"
       inkscape:locked="false" /><sodipodi:guide
       position="0.89219442,-82.933423"
       orientation="-26.910388,0"
       id="guide11501"
       inkscape:locked="false" /><sodipodi:guide
       position="0.89219442,-75.813384"
       orientation="0,-30.655686"
       id="guide11503"
       inkscape:locked="false" /><sodipodi:guide
       position="-7.2187895,-85.813383"
       orientation="26.910388,0"
       id="guide11505"
       inkscape:locked="false" /><sodipodi:guide
       position="-7.2187895,-92.933423"
       orientation="0,30.655686"
       id="guide11507"
       inkscape:locked="false" /><sodipodi:guide
       position="0.89219442,-92.933423"
       orientation="-26.910388,0"
       id="guide11509"
       inkscape:locked="false" /><sodipodi:guide
       position="0.89219442,-85.813383"
       orientation="0,-30.655686"
       id="guide11511"
       inkscape:locked="false" /></sodipodi:namedview><defs
     id="defs2"><linearGradient
       id="linearGradient11890"
       inkscape:swatch="solid"><stop
         style="stop-color:#0000ff;stop-opacity:1;"
         offset="0"
         id="stop11888" /></linearGradient></defs><rect
     x="-23.719139"
     y="-136.04634"
     width="60.720001"
     height="382.95023"
     rx="0"
     ry="0"
     style="fill:#613583;stroke:none;stroke-width:0mm"
     id="rect72" /><g
     id="g11722"
     inkscape:label="components"
     style="display:none"
     inkscape:groupmode="layer"
     transform="translate(-23.405024,-8.5224435)"><circle
       style="fill:#ff0000;fill-opacity:1;stroke-width:0.318296"
       id="path11660"
       cx="28.32667"
       cy="24.031597"
       r="4.815783"
       inkscape:label="Divider" /><circle
       style="fill:#ff0000;fill-opacity:1;stroke-width:0.318798;stroke-dasharray:none"
       id="circle11662"
       cx="28.32667"
       cy="11.323188"
       r="4.815783"
       inkscape:label="Multiplier" /><rect
       style="fill:#00ff00;fill-opacity:1;stroke:none;stroke-width:0.272479"
       width="8.1109829"
       height="7.5513692"
       x="4.1674471"
       y="110.74535"
       id="rect11664"
       inkscape:label="CLOCK_IN" /><circle
       style="fill:#0000ff;fill-opacity:1;fill-rule:nonzero;stroke-width:0.318797;stroke-dasharray:none"
       id="path12633"
       cx="28.32667"
       cy="35.910194"
       r="4.3134351"
       inkscape:label="COL1_OUT8" /><circle
       style="fill:#0000ff;fill-opacity:1;fill-rule:nonzero;stroke-width:0.318797;stroke-dasharray:none"
       id="circle12637"
       cx="28.32667"
       cy="115.06463"
       r="4.3134351"
       inkscape:label="COL1_OUT7" /><circle
       style="fill:#0000ff;fill-opacity:1;fill-rule:nonzero;stroke-width:0.318797;stroke-dasharray:none"
       id="circle12639"
       cx="28.32667"
       cy="103.42281"
       r="4.3134351"
       inkscape:label="COL1_OUT6" /><circle
       style="fill:#0000ff;fill-opacity:1;fill-rule:nonzero;stroke-width:0.318797;stroke-dasharray:none"
       id="circle12641"
       cx="28.32667"
       cy="92.469559"
       r="4.3134351"
       inkscape:label="COL1_OUT5" /><circle
       style="fill:#0000ff;fill-opacity:1;fill-rule:nonzero;stroke-width:0.318797;stroke-dasharray:none"
       id="circle12643"
       cx="28.32667"
       cy="81.112282"
       r="4.3134351"
       inkscape:label="COL1_OUT4" /><circle
       style="fill:#0000ff;fill-opacity:1;fill-rule:nonzero;stroke-width:0.318797;stroke-dasharray:none"
       id="circle12645"
       cx="28.32667"
       cy="69.745255"
       r="4.3134351"
       inkscape:label="COL1_OUT3" /><circle
       style="fill:#0000ff;fill-opacity:1;fill-rule:nonzero;stroke-width:0.318797;stroke-dasharray:none"
       id="circle12647"
       cx="28.32667"
       cy="58.098541"
       r="4.3134351"
       inkscape:label="COL1_OUT2" /><circle
       style="fill:#0000ff;fill-opacity:1;fill-rule:nonzero;stroke-width:0.318797;stroke-dasharray:none"
       id="circle12649"
       cx="28.32667"
       cy="46.993546"
       r="4.3134351"
       inkscape:label="COL1_OUT1" /></g><g
     id="g73024"
     style="display:inline"
     inkscape:label="Ports"
     transform="translate(-23.405024,-8.5224435)"><g
       style="fill:none"
       id="g2425"
       transform="matrix(0.63384515,0,0,0.63384515,5.4200424,221.54397)"
       inkscape:export-filename="./knob-in.svg"
       inkscape:export-xdpi="98.334663"
       inkscape:export-ydpi="98.334663"
       inkscape:label="Input"><path
         d="m 13.7462,8.1084 c 0.6973,-0.70921 1.6477,-1.11239 2.6422,-1.12085 l 8.9319,-0.07592 c 0.9945,-0.00845 1.9516,0.37852 2.6608,1.07578 l 6.3695,6.26209 c 0.7092,0.6972 1.1124,1.6477 1.1208,2.6422 l 0.076,8.9318 c 0.0084,0.9946 -0.3786,1.9517 -1.0758,2.6609 l -6.2621,6.3695 c -0.6973,0.7092 -1.6477,1.1124 -2.6422,1.1208 l -8.9319,0.0759 c -0.9945,0.0085 -1.9516,-0.3785 -2.6608,-1.0757 L 7.60511,28.7128 C 6.8959,28.0155 6.49272,27.0651 6.48426,26.0706 L 6.40834,17.1387 C 6.39989,16.1442 6.78686,15.1871 7.48412,14.4778 Z"
         fill="#f3f3f3"
         stroke="#9d9d9d"
         stroke-width="0.5"
         id="path2407" /><g
         style="mix-blend-mode:hard-light"
         id="g2411"><circle
           cx="21"
           cy="22"
           r="11"
           fill="#4f4f4f"
           fill-opacity="0.95"
           id="circle2409" /></g><circle
         cx="21"
         cy="22"
         r="8"
         fill="#000000"
         id="circle2413" /></g><g
       style="fill:none"
       id="g3623"
       transform="matrix(0.49799019,0,0,0.49799019,26.578267,171.87734)"><path
         d="m 16.6975,11.0862 c 1.4874,-1.51297 3.515,-2.37309 5.6367,-2.39112 l 8.9673,-0.07622 c 2.1216,-0.01803 4.1636,0.80749 5.6766,2.29494 l 6.3947,6.287 c 1.513,1.4875 2.3731,3.5151 2.3911,5.6367 l 0.0762,8.9673 c 0.0181,2.1217 -0.8075,4.1636 -2.2949,5.6766 l -6.287,6.3947 c -1.4875,1.513 -3.5151,2.3731 -5.6367,2.3911 l -8.9673,0.0763 c -2.1217,0.018 -4.1636,-0.8075 -5.6766,-2.295 l -6.3947,-6.287 C 9.06992,36.2741 8.2098,34.2465 8.19177,32.1248 L 8.11555,23.1575 C 8.09751,21.0359 8.92304,18.9939 10.4105,17.4809 Z"
         fill="#323232"
         id="path3613" /><path
         d="m 22.3884,12.9876 8.9319,-0.076 c 0.9945,-0.0084 1.9516,0.3785 2.6609,1.0758 l 6.3694,6.2621 c 0.7092,0.6972 1.1124,1.6477 1.1209,2.6422 l 0.0759,8.9318 c 0.0084,0.9946 -0.3785,1.9517 -1.0758,2.6609 l -6.2621,6.3695 c -0.6972,0.7092 -1.6477,1.1124 -2.6422,1.1208 l -8.9318,0.0759 c -0.9946,0.0085 -1.9517,-0.3785 -2.6609,-1.0757 l -6.3695,-6.2621 c -0.7092,-0.6973 -1.1124,-1.6477 -1.1208,-2.6422 l -0.0759,-8.9319 c -0.0085,-0.9945 0.3785,-1.9516 1.0757,-2.6609 l 6.2621,-6.3694 c 0.6973,-0.7092 1.6477,-1.1124 2.6422,-1.1208 z"
         fill="#f3f3f3"
         stroke="#9d9d9d"
         stroke-width="0.5"
         id="path3615" /><g
         style="mix-blend-mode:hard-light"
         id="g3619"><circle
           cx="27"
           cy="28"
           r="11"
           fill="#4f4f4f"
           fill-opacity="0.95"
           id="circle3617" /></g><circle
         cx="27"
         cy="28"
         r="8"
         fill="#000000"
         id="circle3621" /></g><g
       style="fill:none"
       id="g3647"
       transform="matrix(0.49799019,0,0,0.49799019,26.578267,140.44055)"><path
         d="m 16.6975,11.0862 c 1.4874,-1.51297 3.515,-2.37309 5.6367,-2.39112 l 8.9673,-0.07622 c 2.1216,-0.01803 4.1636,0.80749 5.6766,2.29494 l 6.3947,6.287 c 1.513,1.4875 2.3731,3.5151 2.3911,5.6367 l 0.0762,8.9673 c 0.0181,2.1217 -0.8075,4.1636 -2.2949,5.6766 l -6.287,6.3947 c -1.4875,1.513 -3.5151,2.3731 -5.6367,2.3911 l -8.9673,0.0763 c -2.1217,0.018 -4.1636,-0.8075 -5.6766,-2.295 l -6.3947,-6.287 C 9.06992,36.2741 8.2098,34.2465 8.19177,32.1248 L 8.11555,23.1575 C 8.09751,21.0359 8.92304,18.9939 10.4105,17.4809 Z"
         fill="#323232"
         id="path3637" /><path
         d="m 22.3884,12.9876 8.9319,-0.076 c 0.9945,-0.0084 1.9516,0.3785 2.6609,1.0758 l 6.3694,6.2621 c 0.7092,0.6972 1.1124,1.6477 1.1209,2.6422 l 0.0759,8.9318 c 0.0084,0.9946 -0.3785,1.9517 -1.0758,2.6609 l -6.2621,6.3695 c -0.6972,0.7092 -1.6477,1.1124 -2.6422,1.1208 l -8.9318,0.0759 c -0.9946,0.0085 -1.9517,-0.3785 -2.6609,-1.0757 l -6.3695,-6.2621 c -0.7092,-0.6973 -1.1124,-1.6477 -1.1208,-2.6422 l -0.0759,-8.9319 c -0.0085,-0.9945 0.3785,-1.9516 1.0757,-2.6609 l 6.2621,-6.3694 c 0.6973,-0.7092 1.6477,-1.1124 2.6422,-1.1208 z"
         fill="#f3f3f3"
         stroke="#9d9d9d"
         stroke-width="0.5"
         id="path3639" /><g
         style="mix-blend-mode:hard-light"
         id="g3643"><circle
           cx="27"
           cy="28"
           r="11"
           fill="#4f4f4f"
           fill-opacity="0.95"
           id="circle3641" /></g><circle
         cx="27"
         cy="28"
         r="8"
         fill="#000000"
         id="circle3645" /></g><g
       style="fill:none"
       id="g3671"
       transform="matrix(0.49799019,0,0,0.49799019,26.578267,109.00376)"><path
         d="m 16.6975,11.0862 c 1.4874,-1.51297 3.515,-2.37309 5.6367,-2.39112 l 8.9673,-0.07622 c 2.1216,-0.01803 4.1636,0.80749 5.6766,2.29494 l 6.3947,6.287 c 1.513,1.4875 2.3731,3.5151 2.3911,5.6367 l 0.0762,8.9673 c 0.0181,2.1217 -0.8075,4.1636 -2.2949,5.6766 l -6.287,6.3947 c -1.4875,1.513 -3.5151,2.3731 -5.6367,2.3911 l -8.9673,0.0763 c -2.1217,0.018 -4.1636,-0.8075 -5.6766,-2.295 l -6.3947,-6.287 C 9.06992,36.2741 8.2098,34.2465 8.19177,32.1248 L 8.11555,23.1575 C 8.09751,21.0359 8.92304,18.9939 10.4105,17.4809 Z"
         fill="#323232"
         id="path3661" /><path
         d="m 22.3884,12.9876 8.9319,-0.076 c 0.9945,-0.0084 1.9516,0.3785 2.6609,1.0758 l 6.3694,6.2621 c 0.7092,0.6972 1.1124,1.6477 1.1209,2.6422 l 0.0759,8.9318 c 0.0084,0.9946 -0.3785,1.9517 -1.0758,2.6609 l -6.2621,6.3695 c -0.6972,0.7092 -1.6477,1.1124 -2.6422,1.1208 l -8.9318,0.0759 c -0.9946,0.0085 -1.9517,-0.3785 -2.6609,-1.0757 l -6.3695,-6.2621 c -0.7092,-0.6973 -1.1124,-1.6477 -1.1208,-2.6422 l -0.0759,-8.9319 c -0.0085,-0.9945 0.3785,-1.9516 1.0757,-2.6609 l 6.2621,-6.3694 c 0.6973,-0.7092 1.6477,-1.1124 2.6422,-1.1208 z"
         fill="#f3f3f3"
         stroke="#9d9d9d"
         stroke-width="0.5"
         id="path3663" /><g
         style="mix-blend-mode:hard-light"
         id="g3667"><circle
           cx="27"
           cy="28"
           r="11"
           fill="#4f4f4f"
           fill-opacity="0.95"
           id="circle3665" /></g><circle
         cx="27"
         cy="28"
         r="8"
         fill="#000000"
         id="circle3669" /></g><g
       style="fill:none"
       id="g3683"
       transform="matrix(0.49799019,0,0,0.49799019,26.578267,-48.180192)"><path
         d="m 16.6975,11.0862 c 1.4874,-1.51297 3.515,-2.37309 5.6367,-2.39112 l 8.9673,-0.07622 c 2.1216,-0.01803 4.1636,0.80749 5.6766,2.29494 l 6.3947,6.287 c 1.513,1.4875 2.3731,3.5151 2.3911,5.6367 l 0.0762,8.9673 c 0.0181,2.1217 -0.8075,4.1636 -2.2949,5.6766 l -6.287,6.3947 c -1.4875,1.513 -3.5151,2.3731 -5.6367,2.3911 l -8.9673,0.0763 c -2.1217,0.018 -4.1636,-0.8075 -5.6766,-2.295 l -6.3947,-6.287 C 9.06992,36.2741 8.2098,34.2465 8.19177,32.1248 L 8.11555,23.1575 C 8.09751,21.0359 8.92304,18.9939 10.4105,17.4809 Z"
         fill="#323232"
         id="path3673" /><path
         d="m 22.3884,12.9876 8.9319,-0.076 c 0.9945,-0.0084 1.9516,0.3785 2.6609,1.0758 l 6.3694,6.2621 c 0.7092,0.6972 1.1124,1.6477 1.1209,2.6422 l 0.0759,8.9318 c 0.0084,0.9946 -0.3785,1.9517 -1.0758,2.6609 l -6.2621,6.3695 c -0.6972,0.7092 -1.6477,1.1124 -2.6422,1.1208 l -8.9318,0.0759 c -0.9946,0.0085 -1.9517,-0.3785 -2.6609,-1.0757 l -6.3695,-6.2621 c -0.7092,-0.6973 -1.1124,-1.6477 -1.1208,-2.6422 l -0.0759,-8.9319 c -0.0085,-0.9945 0.3785,-1.9516 1.0757,-2.6609 l 6.2621,-6.3694 c 0.6973,-0.7092 1.6477,-1.1124 2.6422,-1.1208 z"
         fill="#f3f3f3"
         stroke="#9d9d9d"
         stroke-width="0.5"
         id="path3675" /><g
         style="mix-blend-mode:hard-light"
         id="g3679"><circle
           cx="27"
           cy="28"
           r="11"
           fill="#4f4f4f"
           fill-opacity="0.95"
           id="circle3677" /></g><circle
         cx="27"
         cy="28"
         r="8"
         fill="#000000"
         id="circle3681" /></g><g
       style="fill:none"
       id="g3695"
       transform="matrix(0.49799019,0,0,0.49799019,26.578267,-16.743403)"><path
         d="m 16.6975,11.0862 c 1.4874,-1.51297 3.515,-2.37309 5.6367,-2.39112 l 8.9673,-0.07622 c 2.1216,-0.01803 4.1636,0.80749 5.6766,2.29494 l 6.3947,6.287 c 1.513,1.4875 2.3731,3.5151 2.3911,5.6367 l 0.0762,8.9673 c 0.0181,2.1217 -0.8075,4.1636 -2.2949,5.6766 l -6.287,6.3947 c -1.4875,1.513 -3.5151,2.3731 -5.6367,2.3911 l -8.9673,0.0763 c -2.1217,0.018 -4.1636,-0.8075 -5.6766,-2.295 l -6.3947,-6.287 C 9.06992,36.2741 8.2098,34.2465 8.19177,32.1248 L 8.11555,23.1575 C 8.09751,21.0359 8.92304,18.9939 10.4105,17.4809 Z"
         fill="#323232"
         id="path3685" /><path
         d="m 22.3884,12.9876 8.9319,-0.076 c 0.9945,-0.0084 1.9516,0.3785 2.6609,1.0758 l 6.3694,6.2621 c 0.7092,0.6972 1.1124,1.6477 1.1209,2.6422 l 0.0759,8.9318 c 0.0084,0.9946 -0.3785,1.9517 -1.0758,2.6609 l -6.2621,6.3695 c -0.6972,0.7092 -1.6477,1.1124 -2.6422,1.1208 l -8.9318,0.0759 c -0.9946,0.0085 -1.9517,-0.3785 -2.6609,-1.0757 l -6.3695,-6.2621 c -0.7092,-0.6973 -1.1124,-1.6477 -1.1208,-2.6422 l -0.0759,-8.9319 c -0.0085,-0.9945 0.3785,-1.9516 1.0757,-2.6609 l 6.2621,-6.3694 c 0.6973,-0.7092 1.6477,-1.1124 2.6422,-1.1208 z"
         fill="#f3f3f3"
         stroke="#9d9d9d"
         stroke-width="0.5"
         id="path3687" /><g
         style="mix-blend-mode:hard-light"
         id="g3691"><circle
           cx="27"
           cy="28"
           r="11"
           fill="#4f4f4f"
           fill-opacity="0.95"
           id="circle3689" /></g><circle
         cx="27"
         cy="28"
         r="8"
         fill="#000000"
         id="circle3693" /></g><g
       style="fill:none"
       id="g3719"
       transform="matrix(0.49799019,0,0,0.49799019,26.578267,14.693386)"
       inkscape:export-filename="./port.svg"
       inkscape:export-xdpi="98.334663"
       inkscape:export-ydpi="98.334663"><path
         d="m 16.6975,11.0862 c 1.4874,-1.51297 3.515,-2.37309 5.6367,-2.39112 l 8.9673,-0.07622 c 2.1216,-0.01803 4.1636,0.80749 5.6766,2.29494 l 6.3947,6.287 c 1.513,1.4875 2.3731,3.5151 2.3911,5.6367 l 0.0762,8.9673 c 0.0181,2.1217 -0.8075,4.1636 -2.2949,5.6766 l -6.287,6.3947 c -1.4875,1.513 -3.5151,2.3731 -5.6367,2.3911 l -8.9673,0.0763 c -2.1217,0.018 -4.1636,-0.8075 -5.6766,-2.295 l -6.3947,-6.287 C 9.06992,36.2741 8.2098,34.2465 8.19177,32.1248 L 8.11555,23.1575 C 8.09751,21.0359 8.92304,18.9939 10.4105,17.4809 Z"
         fill="#323232"
         id="path3709" /><path
         d="m 22.3884,12.9876 8.9319,-0.076 c 0.9945,-0.0084 1.9516,0.3785 2.6609,1.0758 l 6.3694,6.2621 c 0.7092,0.6972 1.1124,1.6477 1.1209,2.6422 l 0.0759,8.9318 c 0.0084,0.9946 -0.3785,1.9517 -1.0758,2.6609 l -6.2621,6.3695 c -0.6972,0.7092 -1.6477,1.1124 -2.6422,1.1208 l -8.9318,0.0759 c -0.9946,0.0085 -1.9517,-0.3785 -2.6609,-1.0757 l -6.3695,-6.2621 c -0.7092,-0.6973 -1.1124,-1.6477 -1.1208,-2.6422 l -0.0759,-8.9319 c -0.0085,-0.9945 0.3785,-1.9516 1.0757,-2.6609 l 6.2621,-6.3694 c 0.6973,-0.7092 1.6477,-1.1124 2.6422,-1.1208 z"
         fill="#f3f3f3"
         stroke="#9d9d9d"
         stroke-width="0.5"
         id="path3711" /><g
         style="mix-blend-mode:hard-light"
         id="g3715"><circle
           cx="27"
           cy="28"
           r="11"
           fill="#4f4f4f"
           fill-opacity="0.95"
           id="circle3713" /></g><circle
         cx="27"
         cy="28"
         r="8"
         fill="#000000"
         id="circle3717" /></g><g
       style="fill:none"
       id="g3743"
       transform="matrix(0.49799019,0,0,0.49799019,26.578267,46.130175)"><path
         d="m 16.6975,11.0862 c 1.4874,-1.51297 3.515,-2.37309 5.6367,-2.39112 l 8.9673,-0.07622 c 2.1216,-0.01803 4.1636,0.80749 5.6766,2.29494 l 6.3947,6.287 c 1.513,1.4875 2.3731,3.5151 2.3911,5.6367 l 0.0762,8.9673 c 0.0181,2.1217 -0.8075,4.1636 -2.2949,5.6766 l -6.287,6.3947 c -1.4875,1.513 -3.5151,2.3731 -5.6367,2.3911 l -8.9673,0.0763 c -2.1217,0.018 -4.1636,-0.8075 -5.6766,-2.295 l -6.3947,-6.287 C 9.06992,36.2741 8.2098,34.2465 8.19177,32.1248 L 8.11555,23.1575 C 8.09751,21.0359 8.92304,18.9939 10.4105,17.4809 Z"
         fill="#323232"
         id="path3733" /><path
         d="m 22.3884,12.9876 8.9319,-0.076 c 0.9945,-0.0084 1.9516,0.3785 2.6609,1.0758 l 6.3694,6.2621 c 0.7092,0.6972 1.1124,1.6477 1.1209,2.6422 l 0.0759,8.9318 c 0.0084,0.9946 -0.3785,1.9517 -1.0758,2.6609 l -6.2621,6.3695 c -0.6972,0.7092 -1.6477,1.1124 -2.6422,1.1208 l -8.9318,0.0759 c -0.9946,0.0085 -1.9517,-0.3785 -2.6609,-1.0757 l -6.3695,-6.2621 c -0.7092,-0.6973 -1.1124,-1.6477 -1.1208,-2.6422 l -0.0759,-8.9319 c -0.0085,-0.9945 0.3785,-1.9516 1.0757,-2.6609 l 6.2621,-6.3694 c 0.6973,-0.7092 1.6477,-1.1124 2.6422,-1.1208 z"
         fill="#f3f3f3"
         stroke="#9d9d9d"
         stroke-width="0.5"
         id="path3735" /><g
         style="mix-blend-mode:hard-light"
         id="g3739"><circle
           cx="27"
           cy="28"
           r="11"
           fill="#4f4f4f"
           fill-opacity="0.95"
           id="circle3737" /></g><circle
         cx="27"
         cy="28"
         r="8"
         fill="#000000"
         id="circle3741" /></g><g
       style="fill:none"
       id="g3767"
       transform="matrix(0.49799019,0,0,0.49799019,26.578267,77.566964)"><path
         d="m 16.6975,11.0862 c 1.4874,-1.51297 3.515,-2.37309 5.6367,-2.39112 l 8.9673,-0.07622 c 2.1216,-0.01803 4.1636,0.80749 5.6766,2.29494 l 6.3947,6.287 c 1.513,1.4875 2.3731,3.5151 2.3911,5.6367 l 0.0762,8.9673 c 0.0181,2.1217 -0.8075,4.1636 -2.2949,5.6766 l -6.287,6.3947 c -1.4875,1.513 -3.5151,2.3731 -5.6367,2.3911 l -8.9673,0.0763 c -2.1217,0.018 -4.1636,-0.8075 -5.6766,-2.295 l -6.3947,-6.287 C 9.06992,36.2741 8.2098,34.2465 8.19177,32.1248 L 8.11555,23.1575 C 8.09751,21.0359 8.92304,18.9939 10.4105,17.4809 Z"
         fill="#323232"
         id="path3757" /><path
         d="m 22.3884,12.9876 8.9319,-0.076 c 0.9945,-0.0084 1.9516,0.3785 2.6609,1.0758 l 6.3694,6.2621 c 0.7092,0.6972 1.1124,1.6477 1.1209,2.6422 l 0.0759,8.9318 c 0.0084,0.9946 -0.3785,1.9517 -1.0758,2.6609 l -6.2621,6.3695 c -0.6972,0.7092 -1.6477,1.1124 -2.6422,1.1208 l -8.9318,0.0759 c -0.9946,0.0085 -1.9517,-0.3785 -2.6609,-1.0757 l -6.3695,-6.2621 c -0.7092,-0.6973 -1.1124,-1.6477 -1.1208,-2.6422 l -0.0759,-8.9319 c -0.0085,-0.9945 0.3785,-1.9516 1.0757,-2.6609 l 6.2621,-6.3694 c 0.6973,-0.7092 1.6477,-1.1124 2.6422,-1.1208 z"
         fill="#f3f3f3"
         stroke="#9d9d9d"
         stroke-width="0.5"
         id="path3759" /><g
         style="mix-blend-mode:hard-light"
         id="g3763"><circle
           cx="27"
           cy="28"
           r="11"
           fill="#4f4f4f"
           fill-opacity="0.95"
           id="circle3761" /></g><circle
         cx="27"
         cy="28"
         r="8"
         fill="#000000"
         id="circle3765" /></g></g><g
     inkscape:groupmode="layer"
     inkscape:label="Knobs Group"
     id="knobs-group"
     transform="translate(-4.5710916,-181.30787)"
     style="display:inline"><g
       inkscape:groupmode="layer"
       inkscape:label="Divider"
       id="g8963"><g
         inkscape:groupmode="layer"
         inkscape:label="Vintage knob"
         id="g8954"><path
           sodipodi:type="star"
           sodipodi:cx="20"
           sodipodi:cy="106.1"
           sodipodi:arg1="0.85"
           sodipodi:arg2="1.3"
           inkscape:rounded="0.5"
           sodipodi:sides="10"
           sodipodi:r1="11.75"
           sodipodi:r2="13.35"
           style="fill:#63452c;stroke:#986a44;stroke-width:0.3"
           id="path8952"
           inkscape:flatsided="false"
           inkscape:randomized="0"
           d="m 27.754802,114.92754 c -2.423326,1.60485 -1.514171,2.8863 -4.183693,4.03596 -1.260538,0.54286 -1.11487,-1.10419 -2.486043,-1.16371 -2.90382,-0.12604 -2.921515,1.44506 -5.756955,0.80605 -1.338884,-0.30174 -0.25292,-1.54862 -1.327239,-2.40273 -2.275154,-1.80879 -3.21294,-0.54814 -5.131256,-2.73174 -0.905822,-1.03109 0.705636,-1.40152 0.3385244,-2.72398 -0.7774553,-2.80064 -2.2771303,-2.33198 -2.5455914,-5.22611 -0.1267664,-1.36659 1.3946637,-0.71909 1.8749838,-2.00476 1.0172042,-2.72274 -0.4715351,-3.22507 1.0124021,-5.724268 0.7007101,-1.180112 1.5509771,0.238007 2.6952631,-0.519798 2.423326,-1.604852 1.514171,-2.886301 4.183693,-4.035958 1.260538,-0.542863 1.11487,1.104193 2.486043,1.163711 2.90382,0.126043 2.921515,-1.445059 5.756955,-0.806046 1.338884,0.30174 0.25292,1.548615 1.327239,2.402721 2.275154,1.808794 3.21294,0.548146 5.131256,2.731749 0.905822,1.031089 -0.705636,1.401519 -0.338524,2.723969 0.777455,2.80065 2.27713,2.33198 2.545591,5.22611 0.126766,1.3666 -1.394664,0.71909 -1.874984,2.00476 -1.017204,2.72275 0.471535,3.22508 -1.012402,5.72427 -0.70071,1.18012 -1.550977,-0.238 -2.695263,0.5198 z"
           transform="translate(0.99971371,-37.021608)" /></g><g
         inkscape:groupmode="layer"
         inkscape:label="Main color"
         id="g8957"><circle
           cx="20.999714"
           cy="69.078384"
           r="11.5"
           id="id_Divider"
           style="fill:#e5a50a;stroke:#241f31;stroke-width:0.2" /></g><g
         inkscape:groupmode="layer"
         inkscape:label="Tick"
         id="g8961"><circle
           cx="13.928646"
           cy="76.149452"
           r="0.5"
           style="fill:#ffffff;stroke:none;stroke-width:0.5"
           id="circle8959" /></g></g></g><g
     inkscape:groupmode="layer"
     inkscape:label="Knobs Group copy"
     id="g55358"
     transform="translate(-4.5710916,-181.30787)"
     style="display:inline"><g
       inkscape:groupmode="layer"
       inkscape:label="Divider"
       id="g55356"><g
         inkscape:groupmode="layer"
         inkscape:label="Vintage knob"
         id="g55346"><path
           sodipodi:type="star"
           sodipodi:cx="20"
           sodipodi:cy="106.1"
           sodipodi:arg1="0.85"
           sodipodi:arg2="1.3"
           inkscape:rounded="0.5"
           sodipodi:sides="10"
           sodipodi:r1="11.75"
           sodipodi:r2="13.35"
           style="fill:#63452c;stroke:#986a44;stroke-width:0.3"
           id="path55344"
           inkscape:flatsided="false"
           inkscape:randomized="0"
           d="m 27.754802,114.92754 c -2.423326,1.60485 -1.514171,2.8863 -4.183693,4.03596 -1.260538,0.54286 -1.11487,-1.10419 -2.486043,-1.16371 -2.90382,-0.12604 -2.921515,1.44506 -5.756955,0.80605 -1.338884,-0.30174 -0.25292,-1.54862 -1.327239,-2.40273 -2.275154,-1.80879 -3.21294,-0.54814 -5.131256,-2.73174 -0.905822,-1.03109 0.705636,-1.40152 0.3385244,-2.72398 -0.7774553,-2.80064 -2.2771303,-2.33198 -2.5455914,-5.22611 -0.1267664,-1.36659 1.3946637,-0.71909 1.8749838,-2.00476 1.0172042,-2.72274 -0.4715351,-3.22507 1.0124021,-5.724268 0.7007101,-1.180112 1.5509771,0.238007 2.6952631,-0.519798 2.423326,-1.604852 1.514171,-2.886301 4.183693,-4.035958 1.260538,-0.542863 1.11487,1.104193 2.486043,1.163711 2.90382,0.126043 2.921515,-1.445059 5.756955,-0.806046 1.338884,0.30174 0.25292,1.548615 1.327239,2.402721 2.275154,1.808794 3.21294,0.548146 5.131256,2.731749 0.905822,1.031089 -0.705636,1.401519 -0.338524,2.723969 0.777455,2.80065 2.27713,2.33198 2.545591,5.22611 0.126766,1.3666 -1.394664,0.71909 -1.874984,2.00476 -1.017204,2.72275 0.471535,3.22508 -1.012402,5.72427 -0.70071,1.18012 -1.550977,-0.238 -2.695263,0.5198 z"
           transform="translate(0.10466968,2.0092022)" /></g><g
         inkscape:groupmode="layer"
         inkscape:label="Main color"
         id="g55350"><circle
           cx="20.10467"
           cy="108.1092"
           r="11.5"
           id="circle55348"
           style="fill:#e5a50a;stroke:#241f31;stroke-width:0.2" /></g><g
         inkscape:groupmode="layer"
         inkscape:label="Tick"
         id="g55354"><circle
           cx="13.033602"
           cy="115.18027"
           r="0.5"
           style="fill:#ffffff;stroke:none;stroke-width:0.5"
           id="circle55352" /></g></g></g><g
     inkscape:groupmode="layer"
     inkscape:label="Knob Scales Group"
     id="knob-scales-group"
     transform="matrix(0.70986585,0,0,0.70986585,12.529407,-125.63554)"
     style="display:inline"><g
       inkscape:groupmode="layer"
       inkscape:label="Divider"
       id="g24158"><g
         inkscape:groupmode="layer"
         inkscape:label="Ticks"
         id="g24154"
         transform="translate(12.313506,-5.8922715)" /><g
         inkscape:groupmode="layer"
         inkscape:label="Labels"
         id="g24156" /></g><g
       inkscape:groupmode="layer"
       inkscape:label="Divider"
       id="g55229"
       transform="translate(-0.55605656,-0.50895664)"><g
         inkscape:groupmode="layer"
         inkscape:label="Ticks"
         id="g55225"><path
           d="m 5.8137617,40.555401 v 2.2"
           style="stroke:#000000;stroke-width:2"
           id="path55165" /><path
           d="m 1.3316307,40.068001 -0.214971,0.9766"
           style="stroke:#000000;stroke-width:0.5"
           id="path55167" /><path
           d="m -2.9409283,38.628401 -0.41988,0.9076"
           style="stroke:#000000;stroke-width:0.5"
           id="path55169" /><path
           d="m -6.8041183,36.304001 -0.60517,0.7961"
           style="stroke:#000000;stroke-width:0.5"
           id="path55171" /><path
           d="m -10.077358,33.203401 -1.6767,1.4243"
           style="stroke:#000000;stroke-width:2"
           id="path55173" /><path
           d="m -12.607458,29.471801 -0.8835,0.4684"
           style="stroke:#000000;stroke-width:0.5"
           id="path55175" /><path
           d="m -14.276258,25.283401 -0.9635,0.2675"
           style="stroke:#000000;stroke-width:0.5"
           id="path55177" /><path
           d="m -15.005658,20.834201 -0.9985,0.0542"
           style="stroke:#000000;stroke-width:0.5"
           id="path55179" /><path
           d="m -14.761558,16.332301 -2.171,-0.3559"
           style="stroke:#000000;stroke-width:2"
           id="path55181" /><path
           d="m -13.555358,11.988101 -0.929,-0.3702"
           style="stroke:#000000;stroke-width:0.5"
           id="path55183" /><path
           d="m -11.443558,8.0047007 -0.8277,-0.5612"
           style="stroke:#000000;stroke-width:0.5"
           id="path55185" /><path
           d="m -8.5247683,4.5684007 -0.6877,-0.726"
           style="stroke:#000000;stroke-width:0.5"
           id="path55187" /><path
           d="m -4.9355383,1.8400007 -1.13421,-1.88512"
           style="stroke:#000000;stroke-width:2"
           id="path55189" /><path
           d="m -0.8436683,-0.0531293 -0.31931,-0.94766"
           style="stroke:#000000;stroke-width:0.5"
           id="path55191" /><path
           d="m 3.5594817,-1.0223393 -0.10812,-0.99414"
           style="stroke:#000000;stroke-width:0.5"
           id="path55193" /><path
           d="m 8.0680417,-1.0223393 0.10812,-0.99414"
           style="stroke:#000000;stroke-width:0.5"
           id="path55195" /><path
           d="m 12.471242,-0.0531293 0.7024,-2.08484"
           style="stroke:#000000;stroke-width:2"
           id="path55197" /><path
           d="m 16.563042,1.8400007 0.5156,-0.85689"
           style="stroke:#000000;stroke-width:0.5"
           id="path55199" /><path
           d="m 20.152342,4.5684007 0.6877,-0.726"
           style="stroke:#000000;stroke-width:0.5"
           id="path55201" /><path
           d="m 23.071042,8.0047007 0.8277,-0.5612"
           style="stroke:#000000;stroke-width:0.5"
           id="path55203" /><path
           d="m 25.182942,11.988101 2.0437,-0.8143"
           style="stroke:#000000;stroke-width:2"
           id="path55205" /><path
           d="m 26.389142,16.332301 0.9868,-0.1618"
           style="stroke:#000000;stroke-width:0.5"
           id="path55207" /><path
           d="m 26.633142,20.834201 0.9986,0.0542"
           style="stroke:#000000;stroke-width:0.5"
           id="path55209" /><path
           d="m 25.903742,25.283401 0.9636,0.2675"
           style="stroke:#000000;stroke-width:0.5"
           id="path55211" /><path
           d="m 24.234942,29.471801 1.9438,1.0305"
           style="stroke:#000000;stroke-width:2"
           id="path55213" /><path
           d="m 21.704842,33.203401 0.7622,0.6474"
           style="stroke:#000000;stroke-width:0.5"
           id="path55215" /><path
           d="m 18.431642,36.304001 0.6052,0.7961"
           style="stroke:#000000;stroke-width:0.5"
           id="path55217" /><path
           d="m 14.568442,38.628401 0.4199,0.9076"
           style="stroke:#000000;stroke-width:0.5"
           id="path55219" /><path
           d="m 10.295902,40.068001 0.47294,2.1485"
           style="stroke:#000000;stroke-width:2"
           id="path55221" /><path
           d="m 5.8137617,40.555401 v 1"
           style="stroke:#000000;stroke-width:0.5"
           id="path55223" /></g><g
         inkscape:groupmode="layer"
         inkscape:label="Labels"
         id="g55227" /></g></g><g
     inkscape:groupmode="layer"
     inkscape:label="Knobs Group"
     id="g55342"
     transform="translate(-4.5710916,-181.30787)"
     style="display:inline"
     inkscape:export-filename="./knob.svg"
     inkscape:export-xdpi="98.334663"
     inkscape:export-ydpi="98.334663"><g
       inkscape:groupmode="layer"
       inkscape:label="Divider"
       id="g55340"
       inkscape:export-filename="knob.svg"
       inkscape:export-xdpi="98.334663"
       inkscape:export-ydpi="98.334663"><g
         inkscape:groupmode="layer"
         inkscape:label="Vintage knob"
         id="g55330"><path
           sodipodi:type="star"
           sodipodi:cx="20"
           sodipodi:cy="106.1"
           sodipodi:arg1="0.85"
           sodipodi:arg2="1.3"
           inkscape:rounded="0.5"
           sodipodi:sides="10"
           sodipodi:r1="11.75"
           sodipodi:r2="13.35"
           style="fill:#63452c;stroke:#986a44;stroke-width:0.3"
           id="path55328"
           inkscape:flatsided="false"
           inkscape:randomized="0"
           d="m 27.754802,114.92754 c -2.423326,1.60485 -1.514171,2.8863 -4.183693,4.03596 -1.260538,0.54286 -1.11487,-1.10419 -2.486043,-1.16371 -2.90382,-0.12604 -2.921515,1.44506 -5.756955,0.80605 -1.338884,-0.30174 -0.25292,-1.54862 -1.327239,-2.40273 -2.275154,-1.80879 -3.21294,-0.54814 -5.131256,-2.73174 -0.905822,-1.03109 0.705636,-1.40152 0.3385244,-2.72398 -0.7774553,-2.80064 -2.2771303,-2.33198 -2.5455914,-5.22611 -0.1267664,-1.36659 1.3946637,-0.71909 1.8749838,-2.00476 1.0172042,-2.72274 -0.4715351,-3.22507 1.0124021,-5.724268 0.7007101,-1.180112 1.5509771,0.238007 2.6952631,-0.519798 2.423326,-1.604852 1.514171,-2.886301 4.183693,-4.035958 1.260538,-0.542863 1.11487,1.104193 2.486043,1.163711 2.90382,0.126043 2.921515,-1.445059 5.756955,-0.806046 1.338884,0.30174 0.25292,1.548615 1.327239,2.402721 2.275154,1.808794 3.21294,0.548146 5.131256,2.731749 0.905822,1.031089 -0.705636,1.401519 -0.338524,2.723969 0.777455,2.80065 2.27713,2.33198 2.545591,5.22611 0.126766,1.3666 -1.394664,0.71909 -1.874984,2.00476 -1.017204,2.72275 0.471535,3.22508 -1.012402,5.72427 -0.70071,1.18012 -1.550977,-0.238 -2.695263,0.5198 z"
           transform="translate(0.99971371,-37.021608)" /></g><g
         inkscape:groupmode="layer"
         inkscape:label="Main color"
         id="g55334"><circle
           cx="20.999714"
           cy="69.078384"
           r="11.5"
           id="circle55332"
           style="fill:#e5a50a;stroke:#241f31;stroke-width:0.2" /></g><g
         inkscape:groupmode="layer"
         inkscape:label="Tick"
         id="g55338"><circle
           cx="13.928646"
           cy="76.149452"
           r="0.5"
           style="fill:#ffffff;stroke:none;stroke-width:0.5"
           id="circle55336" /></g></g></g><g
     inkscape:groupmode="layer"
     inkscape:label="Knob Scales Group"
     id="g55432"
     transform="matrix(0.70986585,0,0,0.70986585,12.529407,-125.63554)"
     style="display:none"><g
       inkscape:groupmode="layer"
       inkscape:label="Divider"
       id="g55364"><g
         inkscape:groupmode="layer"
         inkscape:label="Ticks"
         id="g55360"
         transform="translate(12.313506,-5.8922715)" /><g
         inkscape:groupmode="layer"
         inkscape:label="Labels"
         id="g55362" /></g><g
       inkscape:groupmode="layer"
       inkscape:label="Divider"
       id="g55430"
       transform="translate(-0.55605656,-0.50895664)"><g
         inkscape:groupmode="layer"
         inkscape:label="Ticks"
         id="g55426"><path
           d="m 5.0423552,95.089993 v 2.2"
           style="stroke:#000000;stroke-width:2"
           id="path55366" /><path
           d="m 0.56022417,94.602593 -0.214971,0.9766"
           style="stroke:#000000;stroke-width:0.5"
           id="path55368" /><path
           d="m -3.7123348,93.162993 -0.41988,0.9076"
           style="stroke:#000000;stroke-width:0.5"
           id="path55370" /><path
           d="m -7.5755248,90.838593 -0.60517,0.7961"
           style="stroke:#000000;stroke-width:0.5"
           id="path55372" /><path
           d="m -10.848765,87.737993 -1.6767,1.4243"
           style="stroke:#000000;stroke-width:2"
           id="path55374" /><path
           d="m -13.378865,84.006393 -0.883499,0.4684"
           style="stroke:#000000;stroke-width:0.5"
           id="path55376" /><path
           d="m -15.047664,79.817993 -0.9635,0.2675"
           style="stroke:#000000;stroke-width:0.5"
           id="path55378" /><path
           d="m -15.777064,75.368793 -0.9985,0.0542"
           style="stroke:#000000;stroke-width:0.5"
           id="path55380" /><path
           d="m -15.532964,70.866893 -2.171,-0.3559"
           style="stroke:#000000;stroke-width:2"
           id="path55382" /><path
           d="m -14.326764,66.522693 -0.929,-0.3702"
           style="stroke:#000000;stroke-width:0.5"
           id="path55384" /><path
           d="m -12.214965,62.539293 -0.8277,-0.5612"
           style="stroke:#000000;stroke-width:0.5"
           id="path55386" /><path
           d="m -9.2961748,59.102993 -0.6877,-0.726"
           style="stroke:#000000;stroke-width:0.5"
           id="path55388" /><path
           d="m -5.7069448,56.374593 -1.13421,-1.88512"
           style="stroke:#000000;stroke-width:2"
           id="path55390" /><path
           d="m -1.6150748,54.481463 -0.31931,-0.94766"
           style="stroke:#000000;stroke-width:0.5"
           id="path55392" /><path
           d="m 2.7880752,53.512253 -0.10812,-0.99414"
           style="stroke:#000000;stroke-width:0.5"
           id="path55394" /><path
           d="m 7.2966356,53.512253 0.10812,-0.99414"
           style="stroke:#000000;stroke-width:0.5"
           id="path55396" /><path
           d="m 11.699836,54.481463 0.7024,-2.08484"
           style="stroke:#000000;stroke-width:2"
           id="path55398" /><path
           d="m 15.791636,56.374593 0.5156,-0.85689"
           style="stroke:#000000;stroke-width:0.5"
           id="path55400" /><path
           d="m 19.380936,59.102993 0.6877,-0.726"
           style="stroke:#000000;stroke-width:0.5"
           id="path55402" /><path
           d="m 22.299636,62.539293 0.8277,-0.5612"
           style="stroke:#000000;stroke-width:0.5"
           id="path55404" /><path
           d="m 24.411536,66.522693 2.0437,-0.8143"
           style="stroke:#000000;stroke-width:2"
           id="path55406" /><path
           d="m 25.617736,70.866893 0.9868,-0.1618"
           style="stroke:#000000;stroke-width:0.5"
           id="path55408" /><path
           d="m 25.861736,75.368793 0.9986,0.0542"
           style="stroke:#000000;stroke-width:0.5"
           id="path55410" /><path
           d="m 25.132336,79.817993 0.9636,0.2675"
           style="stroke:#000000;stroke-width:0.5"
           id="path55412" /><path
           d="m 23.463536,84.006393 1.9438,1.0305"
           style="stroke:#000000;stroke-width:2"
           id="path55414" /><path
           d="m 20.933436,87.737993 0.7622,0.6474"
           style="stroke:#000000;stroke-width:0.5"
           id="path55416" /><path
           d="m 17.660236,90.838593 0.6052,0.7961"
           style="stroke:#000000;stroke-width:0.5"
           id="path55418" /><path
           d="m 13.797036,93.162993 0.4199,0.9076"
           style="stroke:#000000;stroke-width:0.5"
           id="path55420" /><path
           d="m 5.0423552,95.089993 v 1"
           style="stroke:#000000;stroke-width:0.5"
           id="path55424" /></g><g
         inkscape:groupmode="layer"
         inkscape:label="Labels"
         id="g55428" /></g></g></svg>
