<?xml version="1.0" encoding="UTF-8" standalone="no"?>
<!-- Created with Inkscape (http://www.inkscape.org/) -->

<svg
   sodipodi:docname="knob.svg"
   id="svg5"
   version="1.1"
   viewBox="0 0 25.511898 25.52"
   height="25.52"
   width="25.511898"
   inkscape:version="1.2.1 (9c6d41e410, 2022-07-14, custom)"
   xml:space="preserve"
   xmlns:inkscape="http://www.inkscape.org/namespaces/inkscape"
   xmlns:sodipodi="http://sodipodi.sourceforge.net/DTD/sodipodi-0.dtd"
   xmlns="http://www.w3.org/2000/svg"
   xmlns:svg="http://www.w3.org/2000/svg"><sodipodi:namedview
     id="namedview7"
     pagecolor="#ffffff"
     bordercolor="#000000"
     borderopacity="0.25"
     inkscape:showpageshadow="2"
     inkscape:pageopacity="0.0"
     inkscape:pagecheckerboard="0"
     inkscape:deskcolor="#d1d1d1"
     inkscape:document-units="mm"
     showgrid="false"
     inkscape:zoom="6.8860819"
     inkscape:cx="57.434693"
     inkscape:cy="32.529384"
     inkscape:window-width="1892"
     inkscape:window-height="977"
     inkscape:window-x="12"
     inkscape:window-y="87"
     inkscape:window-maximized="1"
     inkscape:current-layer="layer1"
     showguides="false" /><defs
     id="defs2"><linearGradient
       id="linearGradient11890"
       inkscape:swatch="solid"><stop
         style="stop-color:#0000ff;stop-opacity:1;"
         offset="0"
         id="stop11888" /></linearGradient></defs><g
     inkscape:groupmode="layer"
     id="layer1"
     inkscape:label="Layer 1"
     transform="translate(-4.5318857,1.8090995)"><path
       sodipodi:type="star"
       sodipodi:cx="20"
       sodipodi:cy="106.1"
       sodipodi:arg1="0.85"
       sodipodi:arg2="1.3"
       inkscape:rounded="0.5"
       sodipodi:sides="10"
       sodipodi:r1="11.75"
       sodipodi:r2="13.35"
       style="display:inline;fill:#63452c;stroke:#986a44;stroke-width:0.3"
       id="path55328"
       inkscape:flatsided="false"
       inkscape:randomized="0"
       d="m 27.754802,114.92754 c -2.423326,1.60485 -1.514171,2.8863 -4.183693,4.03596 -1.260538,0.54286 -1.11487,-1.10419 -2.486043,-1.16371 -2.90382,-0.12604 -2.921515,1.44506 -5.756955,0.80605 -1.338884,-0.30174 -0.25292,-1.54862 -1.327239,-2.40273 -2.275154,-1.80879 -3.21294,-0.54814 -5.131256,-2.73174 -0.905822,-1.03109 0.705636,-1.40152 0.3385244,-2.72398 -0.7774553,-2.80064 -2.2771303,-2.33198 -2.5455914,-5.22611 -0.1267664,-1.36659 1.3946637,-0.71909 1.8749838,-2.00476 1.0172042,-2.72274 -0.4715351,-3.22507 1.0124021,-5.724268 0.7007101,-1.180112 1.5509771,0.238007 2.6952631,-0.519798 2.423326,-1.604852 1.514171,-2.886301 4.183693,-4.035958 1.260538,-0.542863 1.11487,1.104193 2.486043,1.163711 2.90382,0.126043 2.921515,-1.445059 5.756955,-0.806046 1.338884,0.30174 0.25292,1.548615 1.327239,2.402721 2.275154,1.808794 3.21294,0.548146 5.131256,2.731749 0.905822,1.031089 -0.705636,1.401519 -0.338524,2.723969 0.777455,2.80065 2.27713,2.33198 2.545591,5.22611 0.126766,1.3666 -1.394664,0.71909 -1.874984,2.00476 -1.017204,2.72275 0.471535,3.22508 -1.012402,5.72427 -0.70071,1.18012 -1.550977,-0.238 -2.695263,0.5198 z"
       transform="matrix(0.94029016,0,0,0.96732519,-1.5851711,-91.749522)" /><ellipse
       cx="17.220633"
       cy="10.883678"
       id="circle55332"
       style="display:inline;fill:#e5a50a;stroke:#241f31;stroke-width:0.168404"
       rx="9.5469313"
       ry="9.8214235" /><ellipse
       cx="17.220631"
       cy="2.2120447"
       style="display:inline;fill:#ffffff;stroke:none;stroke-width:0.476856"
       id="circle55336"
       rx="0.47014511"
       ry="0.48366255" /></g></svg>
